<svg xmlns="http://www.w3.org/2000/svg" width="30" height="30">
    <path fill="none" d="M0 0h30v30H0V0z"/>
    <path fill-rule="evenodd" fill="#1C1C1C" d="M28.125 28v-4H1.875v4H0V16a3 3 0 0 1 3-3H1.875V5a3 3 0 0 1 3-3h20.25a3 3 0 0 1 3 3v8H27a3 3 0 0 1 3 3v12h-1.875zM26.25 5a1 1 0 0 0-1-1H4.75a1 1 0 0 0-1 1v8h2.812v-1a3 3 0 0 1 3-3h3.375c.801 0 1.525.319 2.063.83A2.984 2.984 0 0 1 17.062 9h3.375a3 3 0 0 1 3 3v1h2.813V5zM8.437 12v1h5.625v-1a1 1 0 0 0-1-1H9.437a1 1 0 0 0-1 1zm7.5 0v1h5.625v-1a1 1 0 0 0-1-1h-3.625a1 1 0 0 0-1 1zm12.188 4a1 1 0 0 0-1-1H2.875a1 1 0 0 0-1 1v6h26.25v-6z"/>
</svg>
